<svg width="3306" height="1486" viewBox="0 0 3306 1486" fill="none" xmlns="http://www.w3.org/2000/svg">
<g id="Frame 4">
<rect width="3306" height="1486" fill="#81F9FF"/>
<path id="ligne" d="M283.179 498.725C283.179 491.919 286.059 483.7 294.23 472.553C305.682 456.932 358.885 434.559 430.007 410.499C484.135 392.187 516.871 388.72 578.991 385.027C642.969 381.225 694.422 387.725 728.643 402.21C784.149 425.705 821.64 457.596 858.156 492.111C886.665 519.058 932.363 568.316 964.141 603.878C1013.43 659.042 1045.23 700.615 1078.41 736.855C1109.44 770.744 1147.51 815.616 1189.41 857.254C1221.93 889.576 1242.95 911.018 1332.67 951.542C1379 972.467 1459.42 990.238 1518.16 1003.79C1576.9 1017.34 1613.43 1021.29 1665.05 1029.95C1782.66 1049.69 1858.67 1065.54 1876.71 1066.48C1895.48 1067.46 1936.78 1071.23 1991.08 1070.43C2025.76 1069.92 2067.53 1059.06 2167.79 1026.39C2239.39 1003.05 2350.27 957.833 2421.08 928.046C2519.96 886.444 2562.08 853.94 2590 829.434C2623.5 800.039 2641.22 784.874 2673.8 741.458C2701.93 703.963 2749.29 631.93 2778.95 586.365C2835.27 499.827 2848.63 468.978 2864.53 440.991C2880.19 413.448 2895.16 379.596 2912.19 351.303C2926.48 323.269 2945.61 290.581 2955.06 272.673C2957.26 267.909 2958.7 262.83 2960.19 254.051" stroke="black" stroke-width="31" stroke-linecap="round"/>
<g id="horloge">
<circle id="cadran" cx="2059" cy="459" r="247.5" fill="white" stroke="black" stroke-width="5"/>
<path id="minute" d="M2059 459V209" stroke="black" stroke-width="16"/>
<path id="heure" d="M2059 459.012L2224 392" stroke="black" stroke-width="16"/>
</g>
<g id="heart">
<path id="Vector" d="M554 975.563L534.063 957.413C463.25 893.2 416.5 850.712 416.5 798.875C416.5 756.388 449.775 723.25 492.125 723.25C516.05 723.25 539.012 734.387 554 751.85C568.988 734.387 591.95 723.25 615.875 723.25C658.225 723.25 691.5 756.388 691.5 798.875C691.5 850.712 644.75 893.2 573.937 957.413L554 975.563Z" fill="#FF0000"/>
</g>
</g>
</svg>
